<svg xmlns="http://www.w3.org/2000/svg" width="1120" height="420" viewBox="0 0 1120 420">
<rect width="100%" height="100%" fill="white"/>
<line x1="70" y1="197.5" x2="1090" y2="197.5" stroke="#94a3b8" stroke-width="1"/>
<polyline points="70.0,153.2 71.8,162.9 77.1,190.8 78.9,167.3 80.7,191.5 82.5,165.6 84.2,170.2 89.6,202.7 91.4,183.4 93.1,169.4 94.9,149.4 96.7,170.6 102.0,194.6 103.8,172.7 105.6,163.8 107.4,191.5 109.2,174.0 114.5,206.1 130.5,188.6 132.3,187.3 239.1,45.2 240.9,182.9 242.7,177.0 244.5,164.2 246.2,174.8 251.6,157.9 253.4,177.0 255.1,163.9 256.9,150.5 258.7,168.5 264.0,164.4 265.8,162.5 267.6,173.9 269.4,164.5 271.2,170.4 276.5,160.2 278.3,178.6 280.1,203.8 290.7,167.9 292.5,182.3 395.8,169.0 401.1,168.2 402.9,169.5 404.7,179.1 406.4,167.7 408.2,172.2 413.6,170.3 415.3,164.3 417.1,175.0 418.9,178.4 420.7,172.0 426.0,173.6 427.8,146.3 429.6,184.4 431.4,176.0 433.1,181.3 438.5,178.4 440.3,162.8 442.0,176.7 443.8,157.7 545.3,155.1 550.6,179.3 552.4,186.3 568.4,181.1 570.2,179.6 575.5,168.9 577.3,130.6 579.1,173.5 580.9,176.0 582.7,163.0 588.0,145.9 589.8,167.1 591.6,155.4 593.4,185.5 595.1,178.8 600.5,157.4 602.3,175.4 604.0,174.3 605.8,167.8 607.6,176.6 712.6,184.5 714.4,165.5 716.2,158.5 725.1,192.9 726.9,176.3 728.6,172.2 730.4,175.6 732.2,197.5 737.5,155.6 739.3,168.7 741.1,161.8 742.9,153.4 744.7,188.6 750.0,180.0 751.8,170.6 753.6,186.4 755.3,200.6 757.1,183.4 762.5,139.1 764.2,204.6 879.9,170.3 881.7,152.0 888.8,175.8 890.6,197.2 892.4,173.6 894.2,180.4 899.5,188.9 901.3,158.8 903.1,178.7 904.9,187.5 906.6,188.0 912.0,183.1 913.8,183.1 915.5,177.5 917.3,184.1 919.1,166.6 924.5,194.2 926.2,163.3 928.0,181.9 929.8,202.9 1041.9,181.2 1043.7,176.0 1049.1,157.9 1050.8,153.0 1052.6,160.7 1054.4,177.8 1056.2,188.6 1061.5,160.7 1063.3,160.3 1065.1,186.6 1066.9,173.1 1068.6,195.8 1074.0,177.1 1075.8,170.5 1077.5,192.7 1079.3,152.0 1081.1,175.7 1086.4,179.4 1088.2,190.9 1090.0,182.3" fill="none" stroke="#93c5fd" stroke-width="1.5" opacity="0.8"/>
<polyline points="94.9,177.8 264.0,164.5 420.7,171.1 588.0,168.9 741.1,175.8 906.6,179.4 1066.9,174.6" fill="none" stroke="#1d4ed8" stroke-width="3"/>
<g fill="#1d4ed8"><circle cx="94.9" cy="177.8" r="4"/><circle cx="264.0" cy="164.5" r="4"/><circle cx="420.7" cy="171.1" r="4"/><circle cx="588.0" cy="168.9" r="4"/><circle cx="741.1" cy="175.8" r="4"/><circle cx="906.6" cy="179.4" r="4"/><circle cx="1066.9" cy="174.6" r="4"/></g>
<text x="20" y="38" font-size="13">0.612</text>
<text x="20" y="365" font-size="13">-0.612</text>
<text x="70" y="18" font-size="15">Daily neutralized RankIC and 20-day block mean</text>
<text x="70.0" y="400" text-anchor="middle" font-size="13">2025-01</text><text x="324.6" y="400" text-anchor="middle" font-size="13">2025-05</text><text x="579.1" y="400" text-anchor="middle" font-size="13">2025-10</text><text x="833.7" y="400" text-anchor="middle" font-size="13">2026-03</text><text x="1090.0" y="400" text-anchor="middle" font-size="13">2026-07</text>
</svg>
